<svg height='300px' width='300px'  fill="#000000" xmlns="http://www.w3.org/2000/svg" data-name="Ebene 1" viewBox="0 0 48 48" x="0px" y="0px"><defs><style>.cls-1{fill:#000000;opacity:0;}</style></defs><title>Icon</title><path d="M43.31006,18.1,41.9,16.69a2.99972,2.99972,0,0,0-4.24011,0L34,20.35V5a1.00291,1.00291,0,0,0-1-1H5A1.00291,1.00291,0,0,0,4,5V43a1.00291,1.00291,0,0,0,1,1H33a1.00291,1.00291,0,0,0,1-1V31.66l7.18994-7.2,2.12012-2.12A2.99979,2.99979,0,0,0,43.31006,18.1ZM32,42H6V6H32V22.35L23.54,30.8a.99958.99958,0,0,0-.16.19.68336.68336,0,0,0-.1.21c-.01.00995-.01.00995-.01.02l-2.12,6.36a1.028,1.028,0,0,0,.24,1.03,1.007,1.007,0,0,0,.71.29,1.18315,1.18315,0,0,0,.31994-.05L28.78,36.73c.01,0,.01,0,.02-.01a.6816.6816,0,0,0,.21-.1A.99981.99981,0,0,0,29.2,36.46l2.8-2.8Zm-7.34009-8.61L26.61,35.34l-2.93006.98Zm7.65015-2.87-.03.03L28.46,34.36,25.64,31.54l8.07-8.08,2.53-2.53,2.83008,2.83Zm9.59-9.59-1.41,1.41-2.83008-2.83,1.41016-1.41a1.00781,1.00781,0,0,1,1.41992,0l1.41,1.41A1.0079,1.0079,0,0,1,41.9,20.93Z"></path><path d="M28,12H10a1,1,0,0,1,0-2H28a1,1,0,0,1,0,2Z"></path><path d="M28,16H10a1,1,0,0,1,0-2H28a1,1,0,0,1,0,2Z"></path><path d="M20,20H10a1,1,0,0,1,0-2H20a1,1,0,0,1,0,2Z"></path><rect class="cls-1" width="48" height="48"></rect></svg>